<svg xmlns="http://www.w3.org/2000/svg">
	<symbol id="social-telegram">
		<rect width="40" height="40" rx="20" fill="#FEFD02"/>
		<path d="M31.5222 8.07212L5.3875 19.2666C4.87083 19.4818 4.87083 20.2138 5.3875 20.386L10.1667 22.3235C11.0708 22.711 12.1042 22.6249 12.9222 22.1082L27.7764 12.9374C27.9486 12.8082 28.0778 13.0666 27.9486 13.1957L18.7778 21.9791C17.4 23.2707 17.5292 25.5096 19.0361 26.6291L19.6389 27.1027L26.3125 32.1832C27.2167 32.8721 28.5083 32.3555 28.7236 31.236L32.5986 8.89018C32.6847 8.2874 32.0819 7.81379 31.5222 8.07212Z" fill="black"/>
	</symbol>

	<symbol id="social-vk">
		<rect width="40" height="40" rx="20" fill="#FEFD02"/>
		<path fill-rule="evenodd" clip-rule="evenodd"
			d="M11 10.5C11 10.3674 10.9473 10.2402 10.8536 10.1464C10.7598 10.0527 10.6326 10 10.5 10H6.5C6.36739 10 6.24021 10.0527 6.14645 10.1464C6.05268 10.2402 6 10.3674 6 10.5C6 10.5 5.9985 15.342 7.91 20.184C9.85 25.099 13.74 30 21.5 30C21.6326 30 21.7598 29.9473 21.8536 29.8536C21.9473 29.7598 22 29.6326 22 29.5V22.517C25.7525 22.7645 28.754 25.7755 28.986 29.5315C28.9939 29.6585 29.0499 29.7777 29.1426 29.8648C29.2353 29.952 29.3578 30.0005 29.485 30.0005H33.5C33.6326 30.0005 33.7598 29.9478 33.8536 29.8541C33.9473 29.7603 34 29.6331 34 29.5005C34 25.5555 32.01 22.072 28.98 20.0005C32.01 17.9285 34 14.4445 34 10.5C34 10.3674 33.9473 10.2402 33.8536 10.1464C33.7598 10.0527 33.6326 10 33.5 10H29.485C29.3578 10 29.2355 10.0484 29.1428 10.1355C29.0501 10.2225 28.994 10.3416 28.986 10.4685C28.754 14.225 25.7525 17.236 22 17.484V10.5C22 10.3674 21.9473 10.2402 21.8536 10.1464C21.7598 10.0527 21.6326 10 21.5 10H17.5C17.3674 10 17.2402 10.0527 17.1464 10.1464C17.0527 10.2402 17 10.3674 17 10.5V22.85C16.1935 22.572 14.674 21.8325 13.373 19.974C12.07 18.11 11 15.157 11 10.5Z" fill="black" />
	</symbol>

	<symbol id="social-yandex">
		<rect width="40" height="40" rx="20" fill="#FEFD02"/>
			<path
				d="M13.6069 6C11.0548 6 9 8.21289 9 10.9613V29.0387C9 31.7871 11.0548 34 13.6069 34H25.9618L35 20.0035L25.9618 6.00003H13.6069V6ZM20.5253 11.1118H23.4609C23.6411 11.1118 23.7444 11.1827 23.7444 11.3498V28.7727C23.7444 28.8913 23.6926 28.9626 23.538 28.9626H21.9415C21.8392 28.9626 21.7619 28.8675 21.7619 28.7963V22.3459H20.4733L16.8942 28.7963C16.8429 28.915 16.74 28.9626 16.5855 28.9626H14.7574C14.552 28.9626 14.4232 28.7964 14.5518 28.582L18.4908 22.0125C16.3799 21.1556 15.1953 19.4181 15.1953 17.0617C15.1953 13.1343 17.6417 11.1117 20.5253 11.1117L20.5253 11.1118ZM20.4481 12.6343C18.8774 12.6343 17.3322 13.8481 17.3322 16.8238C17.3322 19.6801 18.9803 20.8225 20.6797 20.8225H21.7619V12.6343H20.4481Z" fill="black" />
	</symbol>

	<symbol id="social-phone">
		<circle cx="20" cy="20" r="20" fill="#FEFD02" />
			<path
				d="M18.8481 15.2442C18.5807 12.1684 15.3719 10.6592 15.2361 10.5976C15.1091 10.5379 14.9668 10.5189 14.8287 10.543C11.1243 11.1576 10.5671 13.3136 10.5447 13.4032C10.5142 13.5281 10.519 13.6589 10.5587 13.7812C14.9771 27.49 24.1597 30.031 27.1781 30.8668C27.4105 30.9312 27.6023 30.983 27.7479 31.0306C27.914 31.0849 28.0945 31.0744 28.2533 31.0012C28.3457 30.9592 30.5269 29.9316 31.0603 26.58C31.0839 26.4337 31.0604 26.2837 30.9931 26.1516C30.9455 26.0592 29.8045 23.8878 26.6405 23.1206C26.5331 23.0932 26.4207 23.0922 26.3129 23.1178C26.2051 23.1434 26.1052 23.1948 26.0217 23.2676C25.0235 24.1202 23.6445 25.0288 23.0495 25.1226C19.0609 23.1724 16.8335 19.4302 16.7495 18.7204C16.7005 18.3214 17.6147 16.92 18.6661 15.7804C18.7321 15.7087 18.7825 15.6239 18.8138 15.5316C18.8452 15.4392 18.8568 15.3413 18.8481 15.2442Z" fill="black" />
	</symbol>

	<symbol id="privilege-present-iron" viewBox="0 0 48 48" fill="none">
		<path d="M17.8594 6.45L21.1219 12H21H14.25C12.1781 12 10.5 10.3219 10.5 8.25C10.5 6.17812 12.1781 4.5 14.25 4.5H14.4562C15.8531 4.5 17.1562 5.24063 17.8594 6.45ZM6 8.25C6 9.6 6.32812 10.875 6.9 12H3C1.34062 12 0 13.3406 0 15V21C0 22.6594 1.34062 24 3 24H45C46.6594 24 48 22.6594 48 21V15C48 13.3406 46.6594 12 45 12H41.1C41.6719 10.875 42 9.6 42 8.25C42 3.69375 38.3063 0 33.75 0H33.5437C30.5531 0 27.7781 1.58438 26.2594 4.1625L24 8.01562L21.7406 4.17188C20.2219 1.58437 17.4469 0 14.4562 0H14.25C9.69375 0 6 3.69375 6 8.25ZM37.5 8.25C37.5 10.3219 35.8219 12 33.75 12H27H26.8781L30.1406 6.45C30.8531 5.24063 32.1469 4.5 33.5437 4.5H33.75C35.8219 4.5 37.5 6.17812 37.5 8.25ZM3 27V43.5C3 45.9844 5.01562 48 7.5 48H21V27H3ZM27 48H40.5C42.9844 48 45 45.9844 45 43.5V27H27V48Z" fill="#Feae2d"/>
	</symbol>

	<symbol id="footer-bg">
		<path
			d="M0 80.9723C0 66.5026 10.1628 54.1408 24.4207 51.6749C100.408 38.5328 337.329 -0.0360976 500.5 0C663.316 0.036019 899.697 38.5416 975.582 51.6731C989.839 54.1402 1000 66.5015 1000 80.9702V156H0V80.9723Z" />
	</symbol>
</svg> 