<svg xmlns="http://www.w3.org/2000/svg">
	<symbol id="social-telegram">
		<rect width="40" height="40" rx="20" fill="#FEFD02"/>
		<path d="M31.5222 8.07212L5.3875 19.2666C4.87083 19.4818 4.87083 20.2138 5.3875 20.386L10.1667 22.3235C11.0708 22.711 12.1042 22.6249 12.9222 22.1082L27.7764 12.9374C27.9486 12.8082 28.0778 13.0666 27.9486 13.1957L18.7778 21.9791C17.4 23.2707 17.5292 25.5096 19.0361 26.6291L19.6389 27.1027L26.3125 32.1832C27.2167 32.8721 28.5083 32.3555 28.7236 31.236L32.5986 8.89018C32.6847 8.2874 32.0819 7.81379 31.5222 8.07212Z" fill="black"/>
	</symbol>

	<symbol id="social-vk">
		<rect width="40" height="40" rx="20" fill="#FEFD02"/>
		<path fill-rule="evenodd" clip-rule="evenodd"
			d="M11 10.5C11 10.3674 10.9473 10.2402 10.8536 10.1464C10.7598 10.0527 10.6326 10 10.5 10H6.5C6.36739 10 6.24021 10.0527 6.14645 10.1464C6.05268 10.2402 6 10.3674 6 10.5C6 10.5 5.9985 15.342 7.91 20.184C9.85 25.099 13.74 30 21.5 30C21.6326 30 21.7598 29.9473 21.8536 29.8536C21.9473 29.7598 22 29.6326 22 29.5V22.517C25.7525 22.7645 28.754 25.7755 28.986 29.5315C28.9939 29.6585 29.0499 29.7777 29.1426 29.8648C29.2353 29.952 29.3578 30.0005 29.485 30.0005H33.5C33.6326 30.0005 33.7598 29.9478 33.8536 29.8541C33.9473 29.7603 34 29.6331 34 29.5005C34 25.5555 32.01 22.072 28.98 20.0005C32.01 17.9285 34 14.4445 34 10.5C34 10.3674 33.9473 10.2402 33.8536 10.1464C33.7598 10.0527 33.6326 10 33.5 10H29.485C29.3578 10 29.2355 10.0484 29.1428 10.1355C29.0501 10.2225 28.994 10.3416 28.986 10.4685C28.754 14.225 25.7525 17.236 22 17.484V10.5C22 10.3674 21.9473 10.2402 21.8536 10.1464C21.7598 10.0527 21.6326 10 21.5 10H17.5C17.3674 10 17.2402 10.0527 17.1464 10.1464C17.0527 10.2402 17 10.3674 17 10.5V22.85C16.1935 22.572 14.674 21.8325 13.373 19.974C12.07 18.11 11 15.157 11 10.5Z" fill="black" />
	</symbol>

	<symbol id="social-yandex">
		<rect width="40" height="40" rx="20" fill="#FEFD02"/>
			<path
				d="M13.6069 6C11.0548 6 9 8.21289 9 10.9613V29.0387C9 31.7871 11.0548 34 13.6069 34H25.9618L35 20.0035L25.9618 6.00003H13.6069V6ZM20.5253 11.1118H23.4609C23.6411 11.1118 23.7444 11.1827 23.7444 11.3498V28.7727C23.7444 28.8913 23.6926 28.9626 23.538 28.9626H21.9415C21.8392 28.9626 21.7619 28.8675 21.7619 28.7963V22.3459H20.4733L16.8942 28.7963C16.8429 28.915 16.74 28.9626 16.5855 28.9626H14.7574C14.552 28.9626 14.4232 28.7964 14.5518 28.582L18.4908 22.0125C16.3799 21.1556 15.1953 19.4181 15.1953 17.0617C15.1953 13.1343 17.6417 11.1117 20.5253 11.1117L20.5253 11.1118ZM20.4481 12.6343C18.8774 12.6343 17.3322 13.8481 17.3322 16.8238C17.3322 19.6801 18.9803 20.8225 20.6797 20.8225H21.7619V12.6343H20.4481Z" fill="black" />
	</symbol>

	<symbol id="social-phone">
		<circle cx="20" cy="20" r="20" fill="#FEFD02" />
			<path
				d="M18.8481 15.2442C18.5807 12.1684 15.3719 10.6592 15.2361 10.5976C15.1091 10.5379 14.9668 10.5189 14.8287 10.543C11.1243 11.1576 10.5671 13.3136 10.5447 13.4032C10.5142 13.5281 10.519 13.6589 10.5587 13.7812C14.9771 27.49 24.1597 30.031 27.1781 30.8668C27.4105 30.9312 27.6023 30.983 27.7479 31.0306C27.914 31.0849 28.0945 31.0744 28.2533 31.0012C28.3457 30.9592 30.5269 29.9316 31.0603 26.58C31.0839 26.4337 31.0604 26.2837 30.9931 26.1516C30.9455 26.0592 29.8045 23.8878 26.6405 23.1206C26.5331 23.0932 26.4207 23.0922 26.3129 23.1178C26.2051 23.1434 26.1052 23.1948 26.0217 23.2676C25.0235 24.1202 23.6445 25.0288 23.0495 25.1226C19.0609 23.1724 16.8335 19.4302 16.7495 18.7204C16.7005 18.3214 17.6147 16.92 18.6661 15.7804C18.7321 15.7087 18.7825 15.6239 18.8138 15.5316C18.8452 15.4392 18.8568 15.3413 18.8481 15.2442Z" fill="black" />
	</symbol>

	<symbol id="social-instagram">
		<circle cx="20" cy="20" r="20" fill="#FEFD02" />
		<path fill-rule="evenodd" clip-rule="evenodd" d="M26.2222 6C30.5177 6 34 9.48224 34 13.7778V26.2222C34 30.5177 30.5177 34 26.2222 34H13.7778C9.48224 34 6 30.5177 6 26.2222V13.7778C6 9.48224 9.48224 6 13.7778 6H26.2222ZM26.2222 9.11111H13.7778C11.2005 9.11111 9.11111 11.2005 9.11111 13.7778V26.2222C9.11111 28.7996 11.2005 30.8889 13.7778 30.8889H26.2222C28.7996 30.8889 30.8889 28.7996 30.8889 26.2222V13.7778C30.8889 11.2005 28.7996 9.11111 26.2222 9.11111ZM20 13.7778C23.4364 13.7778 26.2222 16.5636 26.2222 20C26.2222 23.4364 23.4364 26.2222 20 26.2222C16.5636 26.2222 13.7778 23.4364 13.7778 20C13.7778 16.5636 16.5636 13.7778 20 13.7778ZM20 16.8889C18.2817 16.8889 16.8889 18.2817 16.8889 20C16.8889 21.7183 18.2817 23.1111 20 23.1111C21.7183 23.1111 23.1111 21.7183 23.1111 20C23.1111 18.2817 21.7183 16.8889 20 16.8889ZM27 11.4444C27.8591 11.4444 28.5556 12.1409 28.5556 13C28.5556 13.8591 27.8591 14.5556 27 14.5556C26.1409 14.5556 25.4444 13.8591 25.4444 13C25.4444 12.1409 26.1409 11.4444 27 11.4444Z" fill="black"/>
	</symbol>

	<symbol id="privilege-present-iron" viewBox="0 0 48 48" fill="none">
		<path d="M17.8594 6.45L21.1219 12H21H14.25C12.1781 12 10.5 10.3219 10.5 8.25C10.5 6.17812 12.1781 4.5 14.25 4.5H14.4562C15.8531 4.5 17.1562 5.24063 17.8594 6.45ZM6 8.25C6 9.6 6.32812 10.875 6.9 12H3C1.34062 12 0 13.3406 0 15V21C0 22.6594 1.34062 24 3 24H45C46.6594 24 48 22.6594 48 21V15C48 13.3406 46.6594 12 45 12H41.1C41.6719 10.875 42 9.6 42 8.25C42 3.69375 38.3063 0 33.75 0H33.5437C30.5531 0 27.7781 1.58438 26.2594 4.1625L24 8.01562L21.7406 4.17188C20.2219 1.58437 17.4469 0 14.4562 0H14.25C9.69375 0 6 3.69375 6 8.25ZM37.5 8.25C37.5 10.3219 35.8219 12 33.75 12H27H26.8781L30.1406 6.45C30.8531 5.24063 32.1469 4.5 33.5437 4.5H33.75C35.8219 4.5 37.5 6.17812 37.5 8.25ZM3 27V43.5C3 45.9844 5.01562 48 7.5 48H21V27H3ZM27 48H40.5C42.9844 48 45 45.9844 45 43.5V27H27V48Z" fill="#Feae2d"/>
	</symbol>

	<symbol id="footer-bg">
		<path
			d="M0 80.9723C0 66.5026 10.1628 54.1408 24.4207 51.6749C100.408 38.5328 337.329 -0.0360976 500.5 0C663.316 0.036019 899.697 38.5416 975.582 51.6731C989.839 54.1402 1000 66.5015 1000 80.9702V156H0V80.9723Z" />
	</symbol>

	<symbol id="strip-star">
		<path d="M22.506 1.15317C22.5943 0.589681 23.4057 0.589684 23.494 1.15317L25.2969 12.6617C25.364 13.0902 25.9076 13.2359 26.18 12.8983L33.4956 3.8331C33.8538 3.38925 34.5565 3.79495 34.3512 4.32708L30.1583 15.1952C30.0022 15.5999 30.4001 15.9978 30.8048 15.8417L41.6729 11.6488C42.2051 11.4435 42.6108 12.1462 42.1669 12.5044L33.1017 19.82C32.7641 20.0924 32.9098 20.636 33.3383 20.7031L44.8468 22.506C45.4103 22.5943 45.4103 23.4057 44.8468 23.494L33.3383 25.2969C32.9098 25.364 32.7641 25.9076 33.1017 26.18L42.1669 33.4956C42.6108 33.8538 42.2051 34.5565 41.6729 34.3512L30.8048 30.1583C30.4001 30.0022 30.0022 30.4001 30.1583 30.8048L34.3512 41.6729C34.5565 42.2051 33.8538 42.6108 33.4956 42.1669L26.18 33.1017C25.9076 32.7641 25.364 32.9098 25.2969 33.3383L23.494 44.8468C23.4057 45.4103 22.5943 45.4103 22.506 44.8468L20.7031 33.3383C20.636 32.9098 20.0924 32.7641 19.82 33.1017L12.5044 42.1669C12.1462 42.6108 11.4435 42.2051 11.6488 41.6729L15.8417 30.8048C15.9978 30.4001 15.5999 30.0022 15.1952 30.1583L4.32707 34.3512C3.79494 34.5565 3.38925 33.8538 3.8331 33.4956L12.8983 26.18C13.2359 25.9076 13.0902 25.364 12.6617 25.2969L1.15317 23.494C0.589681 23.4057 0.589684 22.5943 1.15317 22.506L12.6617 20.7031C13.0902 20.636 13.2359 20.0924 12.8983 19.82L3.8331 12.5044C3.38925 12.1462 3.79495 11.4435 4.32708 11.6488L15.1952 15.8417C15.5999 15.9978 15.9978 15.5999 15.8417 15.1952L11.6488 4.32707C11.4435 3.79494 12.1462 3.38925 12.5044 3.8331L19.82 12.8983C20.0924 13.2359 20.636 13.0902 20.7031 12.6617L22.506 1.15317Z"/>
	</symbol>
</svg> 


