<svg xmlns="http://www.w3.org/2000/svg">
	<symbol id="telegram-icon">
		<rect width="40" height="40" rx="20" fill="transparent"/>
		<path d="M31.5222 8.07212L5.3875 19.2666C4.87083 19.4818 4.87083 20.2138 5.3875 20.386L10.1667 22.3235C11.0708 22.711 12.1042 22.6249 12.9222 22.1082L27.7764 12.9374C27.9486 12.8082 28.0778 13.0666 27.9486 13.1957L18.7778 21.9791C17.4 23.2707 17.5292 25.5096 19.0361 26.6291L19.6389 27.1027L26.3125 32.1832C27.2167 32.8721 28.5083 32.3555 28.7236 31.236L32.5986 8.89018C32.6847 8.2874 32.0819 7.81379 31.5222 8.07212Z"/>
	</symbol>

	<symbol id="social-telegram">
		<rect width="40" height="40" rx="20" fill="#FEFD02"/>
		<path d="M31.5222 8.07212L5.3875 19.2666C4.87083 19.4818 4.87083 20.2138 5.3875 20.386L10.1667 22.3235C11.0708 22.711 12.1042 22.6249 12.9222 22.1082L27.7764 12.9374C27.9486 12.8082 28.0778 13.0666 27.9486 13.1957L18.7778 21.9791C17.4 23.2707 17.5292 25.5096 19.0361 26.6291L19.6389 27.1027L26.3125 32.1832C27.2167 32.8721 28.5083 32.3555 28.7236 31.236L32.5986 8.89018C32.6847 8.2874 32.0819 7.81379 31.5222 8.07212Z" fill="black"/>
	</symbol>

	<symbol id="social-vk">
		<rect width="40" height="40" rx="20" fill="#FEFD02"/>
		<path fill-rule="evenodd" clip-rule="evenodd"
			d="M11 10.5C11 10.3674 10.9473 10.2402 10.8536 10.1464C10.7598 10.0527 10.6326 10 10.5 10H6.5C6.36739 10 6.24021 10.0527 6.14645 10.1464C6.05268 10.2402 6 10.3674 6 10.5C6 10.5 5.9985 15.342 7.91 20.184C9.85 25.099 13.74 30 21.5 30C21.6326 30 21.7598 29.9473 21.8536 29.8536C21.9473 29.7598 22 29.6326 22 29.5V22.517C25.7525 22.7645 28.754 25.7755 28.986 29.5315C28.9939 29.6585 29.0499 29.7777 29.1426 29.8648C29.2353 29.952 29.3578 30.0005 29.485 30.0005H33.5C33.6326 30.0005 33.7598 29.9478 33.8536 29.8541C33.9473 29.7603 34 29.6331 34 29.5005C34 25.5555 32.01 22.072 28.98 20.0005C32.01 17.9285 34 14.4445 34 10.5C34 10.3674 33.9473 10.2402 33.8536 10.1464C33.7598 10.0527 33.6326 10 33.5 10H29.485C29.3578 10 29.2355 10.0484 29.1428 10.1355C29.0501 10.2225 28.994 10.3416 28.986 10.4685C28.754 14.225 25.7525 17.236 22 17.484V10.5C22 10.3674 21.9473 10.2402 21.8536 10.1464C21.7598 10.0527 21.6326 10 21.5 10H17.5C17.3674 10 17.2402 10.0527 17.1464 10.1464C17.0527 10.2402 17 10.3674 17 10.5V22.85C16.1935 22.572 14.674 21.8325 13.373 19.974C12.07 18.11 11 15.157 11 10.5Z" fill="black" />
	</symbol>

	<symbol id="social-yandex">
		<rect width="40" height="40" rx="20" fill="#FEFD02"/>
			<path
				d="M13.6069 6C11.0548 6 9 8.21289 9 10.9613V29.0387C9 31.7871 11.0548 34 13.6069 34H25.9618L35 20.0035L25.9618 6.00003H13.6069V6ZM20.5253 11.1118H23.4609C23.6411 11.1118 23.7444 11.1827 23.7444 11.3498V28.7727C23.7444 28.8913 23.6926 28.9626 23.538 28.9626H21.9415C21.8392 28.9626 21.7619 28.8675 21.7619 28.7963V22.3459H20.4733L16.8942 28.7963C16.8429 28.915 16.74 28.9626 16.5855 28.9626H14.7574C14.552 28.9626 14.4232 28.7964 14.5518 28.582L18.4908 22.0125C16.3799 21.1556 15.1953 19.4181 15.1953 17.0617C15.1953 13.1343 17.6417 11.1117 20.5253 11.1117L20.5253 11.1118ZM20.4481 12.6343C18.8774 12.6343 17.3322 13.8481 17.3322 16.8238C17.3322 19.6801 18.9803 20.8225 20.6797 20.8225H21.7619V12.6343H20.4481Z" fill="black" />
	</symbol>

	<symbol id="social-phone">
		<circle cx="20" cy="20" r="20" fill="#FEFD02" />
			<path
				d="M18.8481 15.2442C18.5807 12.1684 15.3719 10.6592 15.2361 10.5976C15.1091 10.5379 14.9668 10.5189 14.8287 10.543C11.1243 11.1576 10.5671 13.3136 10.5447 13.4032C10.5142 13.5281 10.519 13.6589 10.5587 13.7812C14.9771 27.49 24.1597 30.031 27.1781 30.8668C27.4105 30.9312 27.6023 30.983 27.7479 31.0306C27.914 31.0849 28.0945 31.0744 28.2533 31.0012C28.3457 30.9592 30.5269 29.9316 31.0603 26.58C31.0839 26.4337 31.0604 26.2837 30.9931 26.1516C30.9455 26.0592 29.8045 23.8878 26.6405 23.1206C26.5331 23.0932 26.4207 23.0922 26.3129 23.1178C26.2051 23.1434 26.1052 23.1948 26.0217 23.2676C25.0235 24.1202 23.6445 25.0288 23.0495 25.1226C19.0609 23.1724 16.8335 19.4302 16.7495 18.7204C16.7005 18.3214 17.6147 16.92 18.6661 15.7804C18.7321 15.7087 18.7825 15.6239 18.8138 15.5316C18.8452 15.4392 18.8568 15.3413 18.8481 15.2442Z" fill="black" />
	</symbol>

	<symbol id="social-instagram">
		<circle cx="20" cy="20" r="20" fill="#FEFD02" />
		<path fill-rule="evenodd" clip-rule="evenodd" d="M26.2222 6C30.5177 6 34 9.48224 34 13.7778V26.2222C34 30.5177 30.5177 34 26.2222 34H13.7778C9.48224 34 6 30.5177 6 26.2222V13.7778C6 9.48224 9.48224 6 13.7778 6H26.2222ZM26.2222 9.11111H13.7778C11.2005 9.11111 9.11111 11.2005 9.11111 13.7778V26.2222C9.11111 28.7996 11.2005 30.8889 13.7778 30.8889H26.2222C28.7996 30.8889 30.8889 28.7996 30.8889 26.2222V13.7778C30.8889 11.2005 28.7996 9.11111 26.2222 9.11111ZM20 13.7778C23.4364 13.7778 26.2222 16.5636 26.2222 20C26.2222 23.4364 23.4364 26.2222 20 26.2222C16.5636 26.2222 13.7778 23.4364 13.7778 20C13.7778 16.5636 16.5636 13.7778 20 13.7778ZM20 16.8889C18.2817 16.8889 16.8889 18.2817 16.8889 20C16.8889 21.7183 18.2817 23.1111 20 23.1111C21.7183 23.1111 23.1111 21.7183 23.1111 20C23.1111 18.2817 21.7183 16.8889 20 16.8889ZM27 11.4444C27.8591 11.4444 28.5556 12.1409 28.5556 13C28.5556 13.8591 27.8591 14.5556 27 14.5556C26.1409 14.5556 25.4444 13.8591 25.4444 13C25.4444 12.1409 26.1409 11.4444 27 11.4444Z" fill="black"/>
	</symbol>

	<symbol id="footer-bg">
		<path
			d="M0 80.9723C0 66.5026 10.1628 54.1408 24.4207 51.6749C100.408 38.5328 337.329 -0.0360976 500.5 0C663.316 0.036019 899.697 38.5416 975.582 51.6731C989.839 54.1402 1000 66.5015 1000 80.9702V156H0V80.9723Z" />
	</symbol>

	<symbol id="strip-star">
		<path d="M22.506 1.15317C22.5943 0.589681 23.4057 0.589684 23.494 1.15317L25.2969 12.6617C25.364 13.0902 25.9076 13.2359 26.18 12.8983L33.4956 3.8331C33.8538 3.38925 34.5565 3.79495 34.3512 4.32708L30.1583 15.1952C30.0022 15.5999 30.4001 15.9978 30.8048 15.8417L41.6729 11.6488C42.2051 11.4435 42.6108 12.1462 42.1669 12.5044L33.1017 19.82C32.7641 20.0924 32.9098 20.636 33.3383 20.7031L44.8468 22.506C45.4103 22.5943 45.4103 23.4057 44.8468 23.494L33.3383 25.2969C32.9098 25.364 32.7641 25.9076 33.1017 26.18L42.1669 33.4956C42.6108 33.8538 42.2051 34.5565 41.6729 34.3512L30.8048 30.1583C30.4001 30.0022 30.0022 30.4001 30.1583 30.8048L34.3512 41.6729C34.5565 42.2051 33.8538 42.6108 33.4956 42.1669L26.18 33.1017C25.9076 32.7641 25.364 32.9098 25.2969 33.3383L23.494 44.8468C23.4057 45.4103 22.5943 45.4103 22.506 44.8468L20.7031 33.3383C20.636 32.9098 20.0924 32.7641 19.82 33.1017L12.5044 42.1669C12.1462 42.6108 11.4435 42.2051 11.6488 41.6729L15.8417 30.8048C15.9978 30.4001 15.5999 30.0022 15.1952 30.1583L4.32707 34.3512C3.79494 34.5565 3.38925 33.8538 3.8331 33.4956L12.8983 26.18C13.2359 25.9076 13.0902 25.364 12.6617 25.2969L1.15317 23.494C0.589681 23.4057 0.589684 22.5943 1.15317 22.506L12.6617 20.7031C13.0902 20.636 13.2359 20.0924 12.8983 19.82L3.8331 12.5044C3.38925 12.1462 3.79495 11.4435 4.32708 11.6488L15.1952 15.8417C15.5999 15.9978 15.9978 15.5999 15.8417 15.1952L11.6488 4.32707C11.4435 3.79494 12.1462 3.38925 12.5044 3.8331L19.82 12.8983C20.0924 13.2359 20.636 13.0902 20.7031 12.6617L22.506 1.15317Z"/>
	</symbol>

	<symbol id="strip-wifi">
		<path d="M130,160.939c12.176,0,22.047,9.863,22.047,22.03S142.176,205,130,205s-22.047-9.863-22.047-22.03
			S117.824,160.939,130,160.939z M130,107.957c-20.693,0-39.454,8.414-53.05,21.999l17.806,17.793
			c9.029-9.022,21.491-14.614,35.244-14.614s26.215,5.592,35.244,14.614l17.806-17.793C169.454,116.371,150.693,107.957,130,107.957z
			M130,54.978c-35.318,0-67.339,14.351-90.53,37.526l17.816,17.803c18.625-18.621,44.347-30.15,72.714-30.15
			s54.089,11.529,72.714,30.15l17.816-17.803C197.339,69.33,165.318,54.978,130,54.978z M130,2C80.068,2,34.798,22.3,2,55.062
			l17.806,17.803C48.047,44.645,87.018,27.178,130,27.178s81.953,17.467,110.194,45.688L258,55.062C225.202,22.3,179.932,2,130,2z"/>
	</symbol>

	<symbol id="strip-sauna">
		<g id="outline">
			<path d="M488,360H427.9a74.081,74.081,0,0,0,14.446-15.127l.5-.706a72.557,72.557,0,0,0,9.365-66.541s-28.75-80.47-28.781-80.549-8.328-19.463-8.328-19.463a68.579,68.579,0,0,0-58.736-41.476L343.182,116.35a55.5,55.5,0,0,0,5.811-44.21A31.985,31.985,0,0,0,360,48a32.4,32.4,0,0,0-9.634-22.975A31.257,31.257,0,0,0,327.857,16a32.915,32.915,0,0,0-27.692,16.2c-1.508-.123-3.028-.2-4.567-.2a55.606,55.606,0,0,0-47.333,84.776,7.976,7.976,0,0,0,1.42,1.706l8.7,26.974a8,8,0,0,0,8.183,5.523l10.069-.718,13.382,15.053A8,8,0,0,0,300.8,166.4l10.713-8.035L320,170.518V190.7l-1.934,5.8a50.845,50.845,0,0,0-1.212,28.149,8,8,0,0,0-4.615,9.291,100.7,100.7,0,0,0,7.522,20.378l-37.035,10.1-21.721-10.86a52.647,52.647,0,0,0-64.657,14.2l-48.909,61.135-.637.159L151.449,264H172a20,20,0,0,0,0-40H92.65A39.994,39.994,0,0,0,16,240v16a8,8,0,0,0,8,8h.551l6.857,96H24a8,8,0,0,0-8,8v32a8,8,0,0,0,8,8h8v80a8,8,0,0,0,8,8H72a8,8,0,0,0,8-8V472H432v16a8,8,0,0,0,8,8h32a8,8,0,0,0,8-8V408h8a8,8,0,0,0,8-8V368A8,8,0,0,0,488,360Zm-50.85-76.992a56.549,56.549,0,0,1-7.311,51.854l-.5.706A58.457,58.457,0,0,1,381.893,360H312.84l5.568-55.691L344,300.652V328a8,8,0,0,0,16,0V298.367l1.159-.166a27.525,27.525,0,0,0,5.33-1.334L395.2,318.4a8,8,0,0,0,9.6-12.8l-24.975-18.731a28.007,28.007,0,0,0,3.99-7.78l19.156-7.661a8,8,0,0,0-5.942-14.856L385.948,261,389,218.333l22.176-8.065ZM328.143,32a15.175,15.175,0,0,1,11.011,4.44A16.111,16.111,0,0,1,341.6,56.414a55.93,55.93,0,0,0-24.443-20.061A17.134,17.134,0,0,1,328.143,32Zm-69.8,66.344-.657.657a39.6,39.6,0,1,1,75.2,1.9l-6.226-9.338a8,8,0,0,0-11.094-2.218,57.307,57.307,0,0,1-45.606,7.9l-4.017-1A8.006,8.006,0,0,0,258.343,98.343Zm61.549,44.076a8,8,0,0,0-11.359-1.819l-11.444,8.584-11.11-12.5a7.977,7.977,0,0,0-6.549-2.665l-7.742.552L265.115,114.2l1.34-1.34a73.4,73.4,0,0,0,51.082-6.13l27.807,41.71A8,8,0,0,0,352,152a52.6,52.6,0,0,1,48.4,31.917l4.819,11.242L390.3,200.135l.446-6.242a24.17,24.17,0,0,0-48.158-4.127l-2.718,27.179-7.761,2.586a34.977,34.977,0,0,1,1.14-17.971l2.344-7.03A8,8,0,0,0,336,192V168a8,8,0,0,0-1.441-4.581Zm17.976,94.506-1.281,12.8-1.045.285a84.593,84.593,0,0,1-4.82-10.492l.011,0Zm-3.956,30.118c.022-.006.043-.011.064-.018l12.128-3.307a8,8,0,0,0,5.856-6.922l6.544-65.439a8.17,8.17,0,0,1,16.279,1.4L373.4,212.157l0,.032-4.225,59.148A12.064,12.064,0,0,1,358.9,282.361L262.868,296.08c-1.182.169-21.848,13.626-21.848,13.626l-7.867-7.867L237.766,288H256C256.711,288,333.912,267.043,333.912,267.043Zm-78,51.967,11.02-7.347,35.168-5.024-3.377,33.776Zm41.107,38.442L296.76,360H232.479a23.816,23.816,0,0,0,1.211-5.023l3.434-27.47ZM153.94,343.761A8.006,8.006,0,0,0,158.247,341l50.6-63.243A36.471,36.471,0,0,1,237.46,264a36.851,36.851,0,0,1,16.391,3.869l5.726,2.863L254.929,272H232a8,8,0,0,0-7.59,5.47l-8,24a8,8,0,0,0,.59,6.4l-42.284,49.332A8,8,0,0,1,168.641,360h-45.5a19.9,19.9,0,0,1,13.716-11.967l2.942-.736c.072-.016.142-.035.213-.053Zm66.882-14.838-3.009,24.069A8.012,8.012,0,0,1,209.875,360H193.63Zm-87.75-32.216-1.141,15.971-15.952-.11,1.142-15.973Zm-14.809-16.1,1.186-16.6h15.959l-1.194,16.714Zm12.526,48.068-.327,4.572a35.775,35.775,0,0,0-16.787,11.593l1.162-16.274ZM96,240h76a4,4,0,0,1,0,8H96Zm7.408,24-1.178,16.49-28.475-.2L72.592,264ZM76.041,312.294,74.9,296.3l26.189.183-1.141,15.975Zm22.764,16.158L96.551,360h-17.1l-2.264-31.7ZM32,240a24,24,0,0,1,48,0v8H32Zm26.85,56.188,1.143,16-15.967-.11-1.143-16ZM41.74,280.067,40.592,264H56.551l1.156,16.179Zm19.4,48.126L63.408,360H47.449l-2.28-31.917ZM64,480H48V408H64Zm368-24H80V440H432Zm0-32H80V408H432Zm32,56H448V408h16Zm16-88H32V376H480Z"/>
			<path d="M106.381,188.614A26.329,26.329,0,0,0,104,200a8,8,0,0,0,16,0,10.221,10.221,0,0,1,.877-4.614,8,8,0,1,0-14.5-6.772Z"/>
			<path d="M128,128a8,8,0,0,0-16,0c0,3.577-.888,4.908-2.656,7.562C107.089,138.943,104,143.576,104,152s3.088,13.055,5.344,16.438a23.59,23.59,0,0,1,1.778,2.948,8,8,0,0,0,14.5-6.768,36.932,36.932,0,0,0-2.964-5.054C120.888,156.908,120,155.576,120,152s.888-4.908,2.656-7.561C124.911,141.055,128,136.422,128,128Z"/>
			<path d="M164,128a8,8,0,0,0-16,0c0,3.577-.888,4.908-2.656,7.562C143.089,138.943,140,143.576,140,152s3.088,13.055,5.344,16.438C147.112,171.089,148,172.421,148,176s-.888,4.909-2.656,7.563C143.089,186.944,140,191.577,140,200a8,8,0,0,0,16,0c0-3.578.888-4.91,2.656-7.563C160.912,189.054,164,184.421,164,176s-3.089-13.056-5.344-16.438C156.888,156.907,156,155.576,156,152s.888-4.908,2.656-7.561C160.911,141.055,164,136.422,164,128Z"/>
			<path d="M176,200a8,8,0,0,0,16,0c0-3.578.888-4.91,2.656-7.563C196.912,189.054,200,184.421,200,176s-3.089-13.057-5.344-16.439a23.578,23.578,0,0,1-1.778-2.946,8,8,0,1,0-14.5,6.772,36.995,36.995,0,0,0,2.962,5.05C183.112,171.089,184,172.42,184,176s-.888,4.909-2.656,7.563C179.089,186.944,176,191.577,176,200Z"/>
			<path d="M192,120a8,8,0,0,0-8,8,10.228,10.228,0,0,1-.878,4.614,8,8,0,1,0,14.5,6.772A26.339,26.339,0,0,0,200,128,8,8,0,0,0,192,120Z"/>
		</g>
	</symbol>

	<symbol id="strip-shower">
		<g>
			<path  d="M25.11,9.063l-0.484-0.017l0.034-0.981l0.485,0.017L25.11,9.063z M25.045,11.028l-0.484-0.018
			l0.036-0.98l0.484,0.018L25.045,11.028z M26.825,6.348l0.32,0.925l0.457-0.161l-0.32-0.927L26.825,6.348z M24.732,6.107
			l0.486,0.017l-0.035,0.981l-0.486-0.017L24.732,6.107z M27.784,9.126l0.457-0.162l-0.318-0.926L27.464,8.2L27.784,9.126z
			M28.424,10.979l0.457-0.162l-0.32-0.926l-0.457,0.162L28.424,10.979z M34.511,17.585l-4.608-5.184
			c-0.537-0.605-1.457-0.654-2.054-0.11c-0.599,0.543-0.647,1.474-0.108,2.079l3.504,3.943c-1.414,1.01-3.547,2.581-4.557,3.554
			c-1.215,0.537-2.433,0.405-3.484,0.024c-0.999-0.971-3.158-2.56-4.583-3.578l3.505-3.943c0.538-0.605,0.488-1.535-0.109-2.079
			c-0.598-0.543-1.518-0.495-2.055,0.11l-4.608,5.184c-0.28,0.315-0.413,0.739-0.363,1.16s0.278,0.801,0.625,1.04
			c0.955,0.658,3.317,2.333,4.762,3.521l0.056,0.814l-0.032,12.011v11.957c0,0.984,0.711,1.781,1.711,1.781s1.81-0.797,1.81-1.781
			V35.629c0,0,0.059-0.633,0.694-0.639c0.637-0.01,0.62,0.604,0.62,0.604v12.46c0,0.981,0.811,1.78,1.811,1.78
			c0.998,0,1.812-0.799,1.812-1.78L28.922,35.2c0-0.121,0.016-11.339,0.016-11.339s-0.006-0.017-0.016-0.069
			c1.291-1.16,4.232-3.252,5.332-4.007c0.348-0.239,0.574-0.618,0.625-1.04C34.924,18.324,34.791,17.9,34.511,17.585z M21.282,10.019
			l-0.43-0.225l-0.446,0.871l0.431,0.226L21.282,10.019z M24.877,14.751c1.7,0,3.077,1.393,3.077,3.111s-1.377,3.111-3.077,3.111
			c-1.699,0-3.077-1.393-3.077-3.111C21.8,16.144,23.178,14.751,24.877,14.751z M22.173,8.276l-0.431-0.225l-0.446,0.871l0.431,0.225
			L22.173,8.276z M25.346,3.119V0h-0.939v3.119L22.329,5.56h5.095L25.346,3.119z M23.063,6.532l-0.431-0.225l-0.446,0.872
			l0.432,0.225L23.063,6.532z"/>
		</g>
	</symbol>

	<symbol id="strip-charge">
		<g>
			<g>
				<polygon points="153.943,144.794 189.385,94.127 163.6,76.091 93.527,176.262 147.315,176.262 110.588,232.116 136.882,249.406 
					205.67,144.794 		"/>
			</g>
		</g>

		<g>
			<g>
				<rect x="132.281" y="340.779" width="35.664" height="31.468"/>
			</g>
		</g>

		<g>
			<g>
				<path d="M477.179,172.872v-63.768H365.811v63.768h-15.295v108.012h55.244v169.557c0,16.592-13.5,30.092-30.092,30.092H204.195
					c-22.482,0-40.773-18.291-40.773-40.772V422.71H280.7V0H19.527v422.709h112.428v17.05c0,39.834,32.407,72.24,72.241,72.24h171.473
					c33.945,0,61.56-27.615,61.56-61.56V280.884h55.244V172.872H477.179z M50.995,31.468h198.238v260.019H50.995V31.468z
					M50.995,391.241v-68.287h198.238v68.287H50.995z M397.279,140.572h48.432v32.3h-48.432V140.572z M461.004,249.416h-79.02v-45.077
					h79.02V249.416z"/>
			</g>
		</g>

		<g>
			<g>
				<rect x="402.75" y="148.907" width="15.438" height="13.322"/>
			</g>
		</g>

		<g>
			<g>
				<rect x="424.798" y="148.907" width="15.438" height="13.322"/>
			</g>
		</g>
	</symbol>

	<symbol id="strip-warm-up">
		<g>
			<path d="M89.836,318.187c-7.574-0.829-15.039-3.559-21.648-8.324c-6.677-4.814-11.656-11.115-14.83-18.125
				c-0.333-0.736-1.691-0.667-2.001,0.134c-4.03,10.397-0.73,22.597,8.737,29.424c9.392,6.773,21.883,6.114,30.471-0.837
				C91.343,319.827,90.822,318.294,89.836,318.187z"/>
			<path d="M123.559,232.152c-7.6-5.48-16.556-8.377-25.899-8.377c-14.229,0-27.686,6.882-35.997,18.407
				c-14.299,19.83-9.799,47.597,10.03,61.896c7.6,5.479,16.556,8.377,25.898,8.377c14.229,0,27.687-6.882,35.997-18.407
				C147.887,274.218,143.388,246.452,123.559,232.152z"/>
			<path d="M425.43,31.973l-0.959-2.104c-3.394-7.442-11.305-12.443-19.685-12.443c-2.376,0-4.696,0.396-6.898,1.178l-81.796,29.052
				c-7.808,2.772-20.487,7.39-28.264,10.292l-90.29,33.693c-5.111,1.907-9.295,5.755-11.948,10.464
				c-0.563,0.925-1.059,1.896-1.47,2.914l-10.295,25.55c-2.739,6.797-10.123,16.088-16.124,20.288l-32.607,22.828l-96.33-98.77
				c-2.84-2.911-6.654-4.515-10.74-4.515c-3.942,0-7.661,1.51-10.472,4.25L4.52,77.608c-5.921,5.774-6.04,15.29-0.265,21.212
				L111.449,208.73c0.157,0.161,0.328,0.303,0.491,0.456l38.037,38.038v146.531c0,8.271,6.729,15,15,15h4c8.271,0,15-6.729,15-15
				V258.363c1.093-0.973,2.093-2.094,2.976-3.355l30.843-44.057c1.849-2.641,4.684-5.549,7.857-8.211l6.591,58.887
				c0.896,8.007,1.392,21.039,1.105,29.05l-3.538,99.139c-0.188,5.285,1.702,10.262,5.323,14.014c3.687,3.821,8.708,5.925,14.14,5.925
				h0.174c11.013,0,20.025-8.855,20.091-19.739l0.613-100.285c0.049-8.144,0.547-21.419,1.109-29.594l6.276-91.214
				c0.236-3.439-0.43-6.721-1.876-9.603c-0.085-0.28-0.151-0.563-0.249-0.841l-11.21-31.844c-0.84-2.387-2.125-4.808-3.717-7.144
				l41.852-23.602c6.841-3.858,18.939-9.136,26.42-11.526l85.578-27.342c5.182-1.655,9.199-5.196,11.313-9.972
				C427.765,42.276,427.686,36.921,425.43,31.973z M183.24,248.73c-4.515,6.45-12.765,7.172-18.332,1.604l-46.59-46.59
				c-5.567-5.567-4.845-13.816,1.605-18.332l42.046-29.435c0.295-0.206,0.595-0.436,0.895-0.662l50.475,50.474
				c-0.227,0.3-0.456,0.6-0.663,0.895L183.24,248.73z M267.07,160.929c2.614,7.427-1.222,15.911-8.524,18.854l-24.383,9.825
				c-0.377,0.151-0.763,0.324-1.152,0.5l-54.465-54.465c0.176-0.389,0.348-0.775,0.5-1.152l9.825-24.383
				c2.943-7.303,11.427-11.139,18.853-8.524l30.391,10.699c7.427,2.614,15.642,10.829,18.256,18.256L267.07,160.929z"/>
		</g>
	</symbol>

	<symbol id="strip-hammock">
		<path d="m629.570312 618.671875h-40.527343l29.050781-156.875c0-.070313.0625-.125.082031-.199219l6.816407-37.007812 15.039062-81.207032c.914062-5.71875-2.898438-11.121093-8.589844-12.171874-5.695312-1.054688-11.183594 2.621093-12.375 8.289062l-9.375 50.605469c-.371094.40625-.6875.863281-.941406 1.351562-.023438.160157-.097656.308594-.210938.425781-4.160156 8.53125-20.6875 20.15625-49.054687 31.355469-.226563-32.8125-5.625-65.382812-16-96.511719-12.152344-30.425781-27.152344-59.632812-44.789063-87.238281-8.855468-13.15625-16.1875-27.277343-21.851562-42.089843 7.039062 6.257812 17.347656 7.15625 25.363281 2.214843 8.015625-4.941406 11.839844-14.554687 9.414063-23.65625-2.425782-9.09375-10.535156-15.527343-19.945313-15.816406-9.410156-.292969-17.902343 5.625-20.890625 14.550781v-.144531c-2.523437-13.921875-4.054687-28.003906-4.574218-42.140625 94.453124-18.242188 133.472656 88.707031 135.136718 93.402344 1.511719 4.261718 5.539063 7.113281 10.058594 7.113281 1.203125 0 2.40625-.203125 3.542969-.609375 5.542969-1.957031 8.457031-8.027344 6.511719-13.578125-.425782-1.308594-42.144532-116.21875-142.390626-109.476563 10.941407-13.40625 26.523438-22.207031 43.652344-24.65625 44.53125-4.972656 88.035156 39.753907 88.511719 40.203126 4.066406 4.261718 10.816406 4.429687 15.078125.363281 4.269531-4.0625 4.429688-10.8125.363281-15.082031-2.054687-2.132813-51.113281-52.703126-106.164062-46.6875-17.40625 2.085937-33.746094 9.519531-46.761719 21.273437 10.570312-29.757813 33.929688-53.203125 63.648438-63.886719 3.703124-1.230468 6.445312-4.386718 7.136718-8.230468.6875-3.839844-.769531-7.757813-3.816406-10.203126-3.046875-2.445312-7.183594-3.035156-10.789062-1.527343-35.324219 12.730469-63.125 40.566406-75.824219 75.90625-18.496094-43.621094-59.878907-73.207031-107.144531-76.589844-5.8125.015625-10.597657 4.59375-10.867188 10.410156-.066406 2.828125.992188 5.570313 2.949219 7.617188 1.953125 2.046875 4.644531 3.238281 7.472656 3.300781 37.492187 2.667969 70.511719 25.648438 86.039063 59.878906-62.652344-52.9375-137.28125-18.652344-138.15625-18.238281-5.320313 2.53125-7.585938 8.890625-5.0625 14.210937 2.53125 5.324219 8.890624 7.585938 14.210937 5.0625 2.835937-1.355468 57.589844-26.46875 107.785156 9.394532-19.019531-5.765625-39.410156-5.125-58.035156 1.824218-50.984375 20.09375-67.386719 84.960938-68.058594 87.714844-.671875 2.75-.226562 5.648438 1.242188 8.066406 1.46875 2.421876 3.839843 4.152344 6.585937 4.828126.835938.199218 1.691406.308593 2.546875.308593 4.914063-.007812 9.179688-3.367187 10.347657-8.140625.136718-.5625 14.332031-56.847656 55.152343-72.941406 19.039063-7.464844 41.421875-4.960938 66.664063 7.21875-36.363282 13.863281-99.265625 52.683594-113.128906 157.398438-.726563 3.878906.753906 7.84375 3.84375 10.304687 3.089843 2.460937 7.28125 3.011719 10.90625 1.433594 3.617187-1.578125 6.066406-5.03125 6.367187-8.964844 14.183594-106.753906 82.011719-136.1875 109.308594-143.867187.746093 16.722656 2.925781 33.347656 6.507812 49.695312v.144531c-7.15625-6.304687-17.628906-7.089843-25.644531-1.929687-8.015625 5.164062-11.632812 15.019531-8.855469 24.140625 2.773438 9.125 11.261719 15.292969 20.796875 15.117187 9.535156-.175781 17.792969-6.65625 20.230469-15.875l.054687.160156c6.039063 14.789063 13.539063 28.9375 22.390626 42.230469 16.945312 26.648438 31.371093 54.816407 43.085937 84.140625 9.902344 30.949219 14.871094 63.273438 14.714844 95.765625-8.105469 2.667969-16.953125 5.121094-26.445313 7.46875.226563-1.988281.34375-3.980469.351563-5.976562 0-32.390625-26.261719-58.652344-58.652344-58.652344-32.398437 0-58.65625 26.261719-58.65625 58.652344-.019531 8.125 1.691406 16.160156 5.015625 23.570312-5.121094.425781-10.347656.746094-15.789062.960938.230468-15.773438-7.664063-30.554688-20.898438-39.140625-13.292969-7.683594-29.601562-8.007813-43.195312-.851563l-44.894532 23.355469-45.214844-62.496094c-9.226562-12.785156-23.644531-20.824218-39.367187-21.957031-15.730469-1.132813-31.144531 4.757813-42.109375 16.09375l-54.601562 56.304687c-14.773438-4.910156-29.023438-11.269531-42.550782-18.980468-8.152344-3.929688-14.972656-10.152344-19.621094-17.914063-.257812-.628906-.59375-1.230469-.996093-1.78125l-9.210938-49.75c-.609375-3.824219-3.246093-7.015625-6.886719-8.332031-3.636718-1.324219-7.710937-.574219-10.632812 1.964844-2.925781 2.539062-4.242188 6.460937-3.445312 10.246094l51.007812 275.335937h-40.523438c-5.890624 0-10.667968 4.773437-10.667968 10.664063 0 5.890624 4.777344 10.664062 10.667968 10.664062h618.53125c5.886719 0 10.660157-4.773438 10.660157-10.664062 0-5.890626-4.773438-10.664063-10.660157-10.664063zm-175.960937-223.953125c20.609375 0 37.324219 16.714844 37.324219 37.324219.039062 3.804687-.535156 7.582031-1.707032 11.199219-21.785156 4.707031-43.828124 8.125-66.011718 10.238281-4.515625-6.234375-6.941406-13.738281-6.933594-21.4375 0-20.609375 16.710938-37.324219 37.328125-37.324219zm-123.710937 40.84375c6.953124-3.808594 15.378906-3.769531 22.292968.109375 7.433594 5.210937 11.535156 13.984375 10.765625 23.035156l-.105469 9.492188-.53125 81.792969v.214843l.320313 25.703125c.09375 2.796875-.988281 5.503906-2.988281 7.460938-1.957032 2.105468-4.695313 3.308594-7.570313 3.308594h-.214843c-5.765626-.058594-10.441407-4.6875-10.554688-10.453126l-.320312-22.824218v-.421875l.53125-84.464844c.027343-2.828125-1.070313-5.550781-3.046876-7.570313-1.980468-2.023437-4.679687-3.167968-7.507812-3.199218h-.105469c-3.308593.105468-6.828125 0-10.777343-.105469-10.984376.210937-21.964844.320313-32.84375.105469zm-164.441407 10.558594 20.152344-20.792969 19.410156 26.765625c-13.542969-1.597656-26.765625-3.628906-39.5625-5.972656zm-1.601562-59.722656c6.589843-6.773438 15.84375-10.285157 25.269531-9.585938s18.058594 5.539062 23.574219 13.214844l48.417969 66.757812c-9.28125-.316406-18.449219-.957031-27.621094-1.8125l-30.503906-42.125c-3.699219-5.132812-9.484376-8.375-15.796876-8.847656-6.316406-.476562-12.515624 1.867188-16.9375 6.398438l-29.648437 30.601562c-8.210937-1.808594-16.210937-3.835938-23.890625-5.96875zm-121.785157 63.992187c38.222657 48.308594 118.265626 110.375 277.699219 113.894531l.214844 12.261719c.289063 17.417969 14.464844 31.40625 31.882813 31.460937h.640624c8.480469-.109374 16.5625-3.589843 22.46875-9.671874 5.902344-6.082032 9.140626-14.269532 8.992188-22.75l-.214844-16.207032c55.058594-6.496094 107.964844-25.230468 154.84375-54.816406-.53125 29.753906-2.023437 58.335938-3.195312 82.222656-.640625 11.945313-1.066406 22.714844-1.386719 31.886719h-460.785156zm514.660157 137.457031c1.386719-28.367187 3.09375-63.34375 3.519531-99.066406 14.078125-11.128906 26.878906-23.777344 38.164062-37.722656l-31.042968 167.613281h-12.136719c.324219-8.855469.855469-19.300781 1.496094-30.824219zm0 0"/>
		<path d="m192.332031 128.109375c0 29.453125-23.875 53.324219-53.324219 53.324219-29.445312 0-53.324218-23.871094-53.324218-53.324219 0-29.445313 23.878906-53.320313 53.324218-53.320313 29.449219 0 53.324219 23.875 53.324219 53.320313zm0 0"/>
		<path d="m128.34375 224.089844v21.328125c0 5.890625 4.773438 10.664062 10.664062 10.664062 5.886719 0 10.667969-4.773437 10.667969-10.664062v-21.328125c0-5.890625-4.78125-10.664063-10.667969-10.664063-5.890624 0-10.664062 4.773438-10.664062 10.664063zm0 0"/>
		<path d="m139.007812 42.796875c5.886719 0 10.667969-4.773437 10.667969-10.664063v-21.328124c0-5.890626-4.78125-10.664063-10.667969-10.664063-5.890624 0-10.664062 4.773437-10.664062 10.664063v21.328124c0 5.890626 4.773438 10.664063 10.664062 10.664063zm0 0"/>
		<path d="m21.699219 138.777344h21.328125c5.894531 0 10.667968-4.773438 10.667968-10.667969 0-5.886719-4.773437-10.660156-10.667968-10.660156h-21.328125c-5.886719 0-10.660157 4.773437-10.660157 10.660156 0 5.894531 4.773438 10.667969 10.660157 10.667969zm0 0"/>
		<path d="m224.320312 128.109375c0 5.894531 4.777344 10.667969 10.667969 10.667969h21.328125c5.886719 0 10.664063-4.773438 10.664063-10.667969 0-5.886719-4.777344-10.660156-10.664063-10.660156h-21.328125c-5.890625 0-10.667969 4.773437-10.667969 10.660156zm0 0"/>
		<path d="m63.601562 188.441406-15.082031 15.078125c-2.773437 2.675781-3.878906 6.644531-2.910156 10.367188.976563 3.730469 3.894531 6.644531 7.621094 7.621093 3.726562.972657 7.695312-.136718 10.371093-2.910156l15.078126-15.078125c4.042968-4.183593 3.984374-10.835937-.132813-14.949219-4.109375-4.113281-10.761719-4.171874-14.945313-.128906zm0 0"/>
		<path d="m206.875 70.90625c2.832031 0 5.539062-1.121094 7.542969-3.125l15.078125-15.078125c4.042968-4.183594 3.984375-10.832031-.132813-14.949219-4.113281-4.113281-10.761719-4.171875-14.945312-.128906l-15.082031 15.078125c-3.050782 3.050781-3.960938 7.636719-2.308594 11.625 1.652344 3.980469 5.535156 6.578125 9.847656 6.578125zm0 0"/>
		<path d="m63.601562 67.78125c4.183594 4.042969 10.835938 3.984375 14.945313-.125 4.117187-4.117188 4.175781-10.769531.132813-14.953125l-15.078126-15.078125c-4.183593-4.042969-10.839843-3.984375-14.949218.128906-4.113282 4.117188-4.171875 10.765625-.132813 14.949219zm0 0"/>
		<path d="m214.417969 218.597656c4.183593 4.042969 10.832031 3.984375 14.945312-.128906 4.117188-4.113281 4.175781-10.765625.132813-14.949219l-15.078125-15.078125c-4.183594-4.042968-10.839844-3.984375-14.953125.128906-4.109375 4.113282-4.167969 10.765626-.128906 14.949219zm0 0"/>
	</symbol>

	<symbol id="strip-balance-board">
		<g>	
			<g id="Layer_1_21_">
					<g>
						<path d="M263.299,99.078c27.105,5.278,53.353-12.411,58.632-39.516c5.277-27.1-12.411-53.354-39.513-58.63 c-27.104-5.279-53.355,12.413-58.633,39.514C218.508,67.552,236.195,93.799,263.299,99.078z"  />
						<path d="M322.242,393.616c3.869-4.641,5.987-10.746,5.44-17.242l-7.729-91.734c-0.438-5.208-2.555-10.33-6.383-14.461l-1.5-1.619 l-19.986-21.57l19.689-93.787l111.129-4.487c10.187-0.44,18.59-8.624,19.021-18.999c0.455-10.947-8.051-20.19-18.998-20.646
						 c0,0-123.046-5.104-128.38-4.755c-12.756,0.835-61.395,0.999-73.794,7.132L87.984,172.607 c-7.106,3.505-10.647,11.841-7.968,19.512c2.898,8.297,11.974,12.673,20.271,9.774l95.899-33.502c0,0-15.6,68.214-15.797,75.396 l-3.965,53.057l-44.066,69.367c-5.282,8.369-4.773,19.064,0.887,26.826c-77.113,4.287-130.88,13.936-130.88,25.15 c0,15.199,98.715,27.52,220.488,27.52s220.488-12.32,220.488-27.52C443.342,407.452,394.083,398.153,322.242,393.616z M172.941,391.375l53.202-69.762c2.22-2.934,3.833-6.521,4.438-10.41l0.349-2.244l5.466-35.154l30.465,28.203l13.625,80.344 c0.597,3.457,1.932,6.639,3.82,9.399c-19.507-0.705-40.123-1.085-61.451-1.085C205.687,390.666,188.979,390.913,172.941,391.375z" />
						<path d="M223.299,539.078c27.105,5.278,53.353-12.411,58.632-39.516c5.277-27.1-12.411-53.354-39.513-58.63 c-27.104-5.279-53.355,12.413-58.633,39.514C178.508,507.552,196.195,533.799,223.299,539.078z" />
					</g>
				</g>
		</g>
	</symbol>

	<symbol id="strip-xbox">
		<g>
			<g>
				<g>
					<path d="M287.245,315.851c0,20.55,16.719,37.268,37.268,37.268s37.268-16.719,37.268-37.268s-16.719-37.268-37.268-37.268
					S287.245,295.301,287.245,315.851z M324.513,294.669c11.68,0,21.181,9.501,21.181,21.181s-9.501,21.181-21.181,21.181
					s-21.181-9.501-21.181-21.181S312.834,294.669,324.513,294.669z"/>
					<path d="M186.906,353.119c20.55,0,37.268-16.719,37.268-37.268s-16.719-37.268-37.268-37.268
					c-20.55,0-37.268,16.719-37.268,37.268S166.357,353.119,186.906,353.119z M186.906,294.669c11.68,0,21.181,9.501,21.181,21.181
					s-9.501,21.181-21.181,21.181c-11.68,0-21.181-9.501-21.181-21.181S175.226,294.669,186.906,294.669z"/>
					<path d="M368.342,203.714c11.363,0,20.608-9.244,20.608-20.607c0-11.362-9.245-20.605-20.608-20.605
					c-11.362,0-20.605,9.244-20.605,20.605C347.737,194.47,356.98,203.714,368.342,203.714z M368.342,178.589
					c2.492,0,4.52,2.027,4.52,4.518c0,2.492-2.028,4.519-4.52,4.519c-2.491,0-4.518-2.027-4.518-4.519
					C363.824,180.616,365.85,178.589,368.342,178.589z"/>
					<path d="M388.95,251.893c0-11.362-9.245-20.605-20.608-20.605c-11.362,0-20.605,9.244-20.605,20.605
					c0,11.362,9.244,20.605,20.605,20.605C379.704,272.498,388.95,263.254,388.95,251.893z M363.824,251.893
					c0-2.491,2.027-4.518,4.518-4.518c2.492,0,4.52,2.027,4.52,4.518c0,2.491-2.028,4.518-4.52,4.518
					S363.824,254.384,363.824,251.893z"/>
					<path d="M313.344,217.5c0,11.362,9.244,20.605,20.607,20.605c11.362,0,20.605-9.244,20.605-20.605
					c0-11.362-9.244-20.605-20.605-20.605C322.588,196.894,313.344,206.138,313.344,217.5z M338.468,217.5
					c0,2.491-2.027,4.518-4.518,4.518c-2.491,0-4.519-2.027-4.519-4.518c0-2.491,2.028-4.518,4.519-4.518
					C336.441,212.982,338.468,215.008,338.468,217.5z"/>
					<path d="M423.341,217.5c0-11.362-9.244-20.605-20.605-20.605c-11.363,0-20.608,9.244-20.608,20.605
					c0,11.362,9.245,20.605,20.608,20.605C414.097,238.106,423.341,228.862,423.341,217.5z M398.215,217.5
					c0-2.491,2.028-4.518,4.52-4.518c2.491,0,4.518,2.027,4.518,4.518c0,2.491-2.027,4.518-4.518,4.518
					C400.243,222.019,398.215,219.992,398.215,217.5z"/>
					<path d="M136.559,261.477h16.301c5.78,0,10.481-4.702,10.481-10.48v-14.865h14.863c5.78,0,10.481-4.702,10.481-10.481v-16.301
					c0-5.78-4.703-10.481-10.481-10.481h-14.863v-14.863c0-5.78-4.703-10.481-10.481-10.481h-16.301
					c-5.78,0-10.481,4.702-10.481,10.481v14.863h-14.863c-5.78,0-10.481,4.702-10.481,10.481v16.301
					c0,5.78,4.703,10.481,10.481,10.481h14.863v14.865C126.077,256.775,130.78,261.477,136.559,261.477z M116.818,220.044v-5.09
					h17.302c4.443,0,8.044-3.601,8.044-8.044V189.61h5.09v17.301c0,4.442,3.6,8.044,8.044,8.044H172.6v5.09h-17.302
					c-4.443,0-8.044,3.601-8.044,8.044v17.302h-5.09v-17.302c0-4.442-3.6-8.044-8.044-8.044H116.818z"/>
					<path d="M511.506,336.532c-2.588-32.668-15.12-71.505-35.283-109.358c-2.086-3.921-6.958-5.405-10.881-3.318
					c-3.92,2.089-5.405,6.96-3.317,10.881c37.85,71.055,45.088,142.554,16.134,159.385c-21.637,12.569-61.412-7.737-98.993-50.532
					c-1.527-1.739-3.73-2.736-6.044-2.736h-2.471c-2.515,0-4.884,1.175-6.405,3.178c-9.531,12.545-24.014,19.74-39.733,19.74
					s-30.202-7.195-39.733-19.74c-1.521-2.002-3.89-3.178-6.405-3.178H234.19c-2.515,0-4.884,1.177-6.406,3.178
					c-9.53,12.545-24.012,19.74-39.732,19.74c-15.718,0-30.201-7.195-39.733-19.74c-1.521-2.002-3.891-3.178-6.405-3.178h-3.031
					c-2.314,0-4.517,0.997-6.044,2.736c-37.582,42.795-77.364,63.108-98.992,50.532C6.125,378.007,8.702,305.248,56.727,222.623
					c14.937-25.699,32.634-49.06,51.178-67.559c1.512-1.509,2.363-3.557,2.363-5.695V128.09c0-7.678,6.247-13.925,13.925-13.925
					h33.012c16.698,0,18.341,9.545,18.441,12.527v15.948c0,4.442,3.6,8.044,8.044,8.044h39.602v16.183c0,4.442,3.6,8.044,8.044,8.044
					h49.334c4.443,0,8.044-3.601,8.044-8.044v-16.183h39.602c4.443,0,8.044-3.601,8.044-8.044v-16.042
					c0-0.042,0.197-4.424,3.55-7.786c3.073-3.082,8.083-4.646,14.891-4.646h33.013c7.678,0,13.924,6.247,13.924,13.925v21.278
					c0,2.136,0.85,4.186,2.363,5.695c16.268,16.228,32.085,36.457,45.742,58.501c2.342,3.776,7.299,4.94,11.074,2.601
					c3.776-2.34,4.94-7.297,2.602-11.073c-13.646-22.024-29.396-42.366-45.694-59.032v-17.97c0-16.548-13.464-30.012-30.011-30.012
					H354.8c-11.238,0-20.082,3.154-26.284,9.375c-8.044,8.067-8.246,18.078-8.244,19.168v7.975H280.67h-49.334h-39.602v-7.951
					c0.003-1.115-0.201-11.125-8.244-19.192c-6.202-6.22-15.046-9.374-26.285-9.374h-33.012c-16.549,0-30.012,13.464-30.012,30.012
					v17.97c-18.655,19.071-36.365,42.676-51.363,68.477C19.742,254.241,4.889,295.692,1,331.253
					c-4.138,37.823,4.658,65.088,24.766,76.777c6.817,3.962,14.51,5.892,22.861,5.892c26.358-0.001,59.247-19.235,91.657-54.542
					c12.413,13.097,29.455,20.478,47.771,20.478c19.426,0,37.42-8.302,49.975-22.918h36.51
					c12.557,14.616,30.549,22.918,49.975,22.918c18.176,0,35.1-7.269,47.486-20.179c32.322,35.118,65.096,54.244,91.38,54.241
					c8.349-0.001,16.046-1.932,22.862-5.892C505.309,396.948,514.281,371.555,511.506,336.532z M239.38,150.683h33.247v8.139H239.38
					V150.683z"/>
					<path d="M244.207,307.807c-4.443,0-8.044,3.6-8.044,8.044c0,4.443,3.6,8.044,8.044,8.044h23.594c4.443,0,8.044-3.6,8.044-8.044
					c0-4.443-3.6-8.044-8.044-8.044H244.207z"/>
				</g>
			</g>
		</g>
	</symbol>

	<symbol id="strip-slacklining">
		<g>
			<g>
				<circle  cx="29.798" cy="12.376" r="3.374"/>
					<path  d="M58.607,45.556l-26.292,3.146c1.03-0.24,1.8-1.16,1.8-2.268V30.822
					c0.038-0.188,0.059-0.387,0.059-0.6c0-0.578,0-1.156,0-1.734c0.014-0.116,0.012-0.233,0-0.35c0-2.829,0-5.657,0-8.485
					c3.189-0.813,6.379-1.626,9.568-2.438c1.993-0.508,1.146-3.587-0.849-3.079c-3.324,0.848-6.647,1.695-9.974,2.542
					c-0.984-0.564-2.334-0.502-3.229,0.187c-3.484-1.191-6.97-2.384-10.455-3.575c-1.947-0.666-2.923,2.374-0.975,3.041
					c3.494,1.195,6.99,2.391,10.483,3.586c0,2.579,0,5.157,0,7.735c-2.29,1.395-4.534,2.861-6.943,4.053
					c-1.054,0.521-1.291,1.947-0.761,2.902c1.195,2.16,2.362,4.336,3.537,6.508c1.301,2.406,4.965,0.264,3.665-2.143
					c-0.824-1.525-1.649-3.049-2.479-4.57c1.248-0.699,2.466-1.449,3.683-2.201v14.236c0,1.123,0.794,2.061,1.854,2.283L0.094,45.556
					L0,46.492l31.733,3.219l0.052,0.006l26.934-3.225L58.607,45.556z"/>
			</g>
		</g>
	</symbol>

	<symbol id="strip-tree">
		<g>
			<path class="st0" d="M465.771,234.587c0-26.914-10.749-51.289-28.142-69.166c0.629-4.688,1.075-9.437,1.075-14.301
				c0-54.151-40.625-98.726-93.05-105.14C319.308,17.754,281.874,0,240.206,0C160.476,0,95.853,64.624,95.853,144.361
				c0,0.422,0.062,0.821,0.062,1.236c-29.975,20.27-49.686,54.58-49.686,93.494c0,53.346,37.08,97.937,86.842,109.667
				c10.089,24.69,34.318,42.106,62.636,42.106c10.557,0,20.508-2.486,29.407-6.798V512h77.528v-83.988l30.236-51.657
				c30.95-2.256,57.097-21.766,68.743-49.033C439.087,313.128,465.771,277.022,465.771,234.587z M260.615,342.229
				c0.66,0.928,1.343,1.826,2.041,2.724l-3.43,1.396C259.725,344.984,260.208,343.625,260.615,342.229z M284.874,405.402v-40.579
				c7.181,4.366,15.076,7.642,23.492,9.622L284.874,405.402z"/>
		</g>
	</symbol>

	<symbol id="strip-soccer">
		<g id="XMLID_1_">
			<g id="XMLID_4726_">
				<g id="XMLID_913_">
					<g id="XMLID_682_">
						<path id="XMLID_4287_" d="m471.4 491.2c-22.4 0-40.7-18.2-40.7-40.7s18.2-40.7 40.7-40.7 40.7 18.2 40.7 40.7-18.2 40.7-40.7 40.7zm0-71.3c-16.9 0-30.7 13.8-30.7 30.7s13.8 30.7 30.7 30.7 30.7-13.8 30.7-30.7-13.8-30.7-30.7-30.7z"/>
					</g>
				<g id="XMLID_681_">
					<path id="XMLID_4284_" d="m478.2 465h-13.5c-2.2 0-4.1-1.4-4.8-3.5l-4.2-12.9c-.7-2.1.1-4.3 1.8-5.6l10.9-8c1.8-1.3 4.1-1.3 5.9 0l10.9 8c1.7 1.3 2.5 3.5 1.8 5.6l-4.2 12.9c-.5 2.1-2.4 3.5-4.6 3.5zm-9.9-10h6.2l1.9-6-5.1-3.7-5.1 3.7z"/>
				</g>
				<g id="XMLID_931_">
					<path id="XMLID_4281_" d="m471.4 436c-1 0-2.1-.3-3-1l-10.9-8c-1.7-1.3-2.5-3.5-1.8-5.6l2.3-7c.5-1.6 1.9-2.9 3.5-3.3 6.5-1.6 13.3-1.6 19.8 0 1.7.4 3 1.7 3.5 3.3l2.3 7.1c.7 2-.1 4.3-1.8 5.6l-10.9 8c-.9.6-1.9.9-3 .9zm-5-14.9 5.1 3.7 5.1-3.7-.3-.8c-3.2-.5-6.4-.5-9.6 0z"/>
				</g>
				<g id="XMLID_678_">
					<path id="XMLID_4278_" d="m478.2 465h-13.5c-2.2 0-4.1-1.4-4.8-3.5l-4.2-12.9c-.7-2.1.1-4.3 1.8-5.6l10.9-8c1.8-1.3 4.1-1.3 5.9 0l10.9 8c1.7 1.3 2.5 3.5 1.8 5.6l-4.2 12.9c-.5 2.1-2.4 3.5-4.6 3.5zm-9.9-10h6.2l1.9-6-5.1-3.7-5.1 3.7z"/>
				</g>
				<g id="XMLID_673_">
					<path id="XMLID_4275_" d="m442 457.5c-1 0-2-.3-2.9-.9l-6.1-4.4c-1.4-1-2.2-2.7-2.1-4.4.4-6.6 2.5-13.1 6-18.7.9-1.5 2.5-2.2 4.2-2.2l7.5.1c2.2 0 4.1 1.2 4.7 3.3l4.2 12.8c.7 2.1 0 4.3-1.8 5.6l-10.9 8c-.8.5-1.8.8-2.8.8zm-.8-11.7.8.6 5.1-3.7-2-5.9h-1c-1.5 2.8-2.5 5.8-2.9 9z"/>
				</g>
				<g id="XMLID_653_">
					<path id="XMLID_4272_" d="m458.2 488.6c-.6 0-1.3-.1-1.9-.4-6.1-2.5-11.7-6.4-15.9-11.5-1.1-1.3-1.5-3.1-.9-4.8l2.3-7.2c.7-2.1 2.6-3.6 4.7-3.6l13.5-.1c2.2 0 4.1 1.5 4.8 3.6l4.2 12.9c.7 2.1-.1 4.3-1.8 5.6l-6.1 4.5c-.8.7-1.9 1-2.9 1zm-8.3-16.3c2.3 2.2 4.9 4.1 7.7 5.6l.8-.6-1.9-6h-6.3z"/>
				</g>
				<g id="XMLID_680_">
					<path id="XMLID_4269_" d="m484.7 488.6c-1 0-2.1-.3-3-1l-6.1-4.5c-1.7-1.3-2.5-3.5-1.8-5.6l4.2-13c.7-2.1 2.6-3.6 4.8-3.6l13.5.2c2.2 0 4.1 1.5 4.7 3.5l2.3 7.2c.5 1.6.2 3.5-.9 4.8-4.3 5.1-9.8 9.1-15.9 11.5-.6.4-1.2.5-1.8.5zm-.2-11.3.8.6c2.8-1.4 5.5-3.3 7.7-5.6l-.3-.9h-6.3z"/>
				</g>
				<g id="XMLID_929_">
					<path id="XMLID_4266_" d="m500.9 457.6c-1 0-2.1-.3-3-1l-10.9-8c-1.8-1.3-2.5-3.5-1.8-5.6l4.3-12.7c.7-2 2.6-3.3 4.7-3.3l7.5-.1c1.7 0 3.3.8 4.2 2.3 3.5 5.6 5.6 12.1 6 18.7.1 1.7-.7 3.4-2.1 4.4l-6.1 4.4c-.8.6-1.8.9-2.8.9zm-5-14.9 5.1 3.7.8-.6c-.5-3.2-1.5-6.2-2.9-9.1h-1z"/>
				</g>
			</g>
			<g id="XMLID_746_">
				<g id="XMLID_1021_">
					<path id="XMLID_3498_" d="m274.4 123.7c-4.4 0-8.8-.9-13-2.7l-1-.4c-16.2-7.1-28-21.7-31.6-39l-5.4-25.8c-2.9-13.7.6-27.8 9.4-38.6s21.9-17.1 35.9-17.1c20 0 37.6 12.8 43.9 31.7l.8 2.4c.6 1.8.1 3.7-1.2 5.1l-4.5 4.6 3 28.1c1.5 13.9-2.3 27.7-10.8 38.9-6.1 8.3-15.7 12.8-25.5 12.8zm-5.7-113.6c-11 0-21.2 4.9-28.1 13.4s-9.6 19.6-7.4 30.3l5.4 25.8c3 14.1 12.6 26 25.8 31.8l1 .4c9.5 4.1 20.4 1.3 26.6-7 6.9-9.1 10-20.4 8.8-31.8l-3.3-30.5c-.2-1.5.3-3 1.4-4l4-4.2c-5-14.5-18.7-24.2-34.2-24.2z"/>
				</g>
				<g id="XMLID_905_">
					<path id="XMLID_3495_" d="m232.5 80c-.3 0-.5 0-.8-.1-2-.3-3.7-1.9-4.1-3.9l-4.2-20.3c-2.9-13.7.6-27.8 9.4-38.6 8.8-10.9 21.9-17.1 35.9-17.1 20 0 37.7 12.8 43.9 31.8l.8 2.4c.6 1.8.1 3.7-1.2 5.1l-6.2 6.3c-.3.3-.6.5-.9.7l-22.3 14.3c-1 .6-2.1.9-3.2.8l-31.4-3.4-11.5 19.6c-.8 1.5-2.4 2.4-4.2 2.4zm36.2-70c-11 0-21.2 4.9-28.1 13.4s-9.6 19.5-7.4 30.3l1.6 7.6 6.6-11.2c1-1.7 2.9-2.7 4.9-2.4l32.9 3.6 20.3-13 3.6-3.7c-5.2-14.8-18.9-24.6-34.4-24.6z"/>
				</g>
			</g>
			<g id="XMLID_906_">
				<path id="XMLID_3494_" d="m325.2 166.5h25.6v10h-25.6z" transform="matrix(.903 .431 -.431 .903 106.841 -128.852)"/>
			</g>
			<g id="XMLID_869_">
				<path id="XMLID_3491_" d="m122.9 160c-.1 0-.1 0-.2 0l-81.1-3.5c-.1 0-.3 0-.4 0l-36.8-4.5c-2.5-.3-4.4-2.4-4.4-5v-38.5c0-2.2 1.4-4.1 3.4-4.8l18.7-6c1.9-.6 4 0 5.3 1.5l16.6 19.7 78.6-4.2c1.4-.1 2.8.4 3.7 1.4 1 .9 1.6 2.3 1.6 3.6v35.3c0 1.4-.6 2.7-1.6 3.6-.8.9-2.1 1.4-3.4 1.4zm-80.6-13.5 75.7 3.3v-24.8l-75.9 4c-1.6.1-3.1-.6-4.1-1.8l-16-19-12 3.9v30.4z"/>
			</g>
			<g id="XMLID_873_">
				<path id="XMLID_3490_" d="m18.8 139.3c-1.8 0-3.5-1-4.4-2.6l-13.9-25.8 8.8-4.8 11.7 21.6 8.7-4.2 4.3 9-13 6.3c-.7.3-1.4.5-2.2.5z"/>
			</g>
			<g id="XMLID_899_">
				<path id="XMLID_3486_" d="m461.2 236.7c-1.9 0-3.6-1.1-4.5-2.8l-7.7-15.4-47-13.7c-2.1-.6-3.5-2.5-3.6-4.6l-2-58c-.1-2 1-3.8 2.8-4.7s3.9-.6 5.4.7l66 55.3 15.7 4.7c2.1.6 3.6 2.6 3.6 4.8v26c0 2.5-2 4.7-4.5 5l-23.7 2.7c-.1 0-.3 0-.5 0zm-52.9-40.5 45.7 13.3c1.3.4 2.5 1.3 3.1 2.6l7.1 14.2 15.8-1.8v-17.8l-13.1-3.9c-.7-.2-1.3-.5-1.8-1l-58.2-48.8z"/>
			</g>
			<g id="XMLID_907_">
				<path id="XMLID_3481_" d="m403.9 373c-.9 0-1.9-.3-2.7-.8l-66-42.2-8.1 36c-.5 2.3-2.5 3.9-4.8 3.9l-72.3 1s0 0-.1 0c-2.6 0-4.7-1.9-5-4.5l-10.9-102c-.2-1.4.3-2.8 1.3-3.9s2.3-1.7 3.7-1.7h156.7c1.5 0 2.9.7 3.9 1.8l38.2 46.5c1.3 1.5 1.5 3.7.6 5.5l-30 57.5c-.6 1.2-1.8 2.2-3.1 2.5-.5.3-1 .4-1.4.4zm-159.3-104 9.8 91.9 63.8-.9 8.8-39.2c.4-1.6 1.5-2.9 3-3.5s3.2-.5 4.6.4l67.4 43.1 25.9-49.7-34.6-42.1z"/>
			</g>
			<g id="XMLID_795_">
				<path id="XMLID_3480_" d="m439.7 388c-5.5 0-11-1.3-16.2-4.1l-21.9-11.5 4.7-8.9 21.9 11.5c10.8 5.7 21.2 2.1 27.3-3.1s11.2-14.9 7.2-26.5l-15.4-44.4c-3-8.7-12-13.9-21.1-12.1l-10.6 2.1-2-9.8 10.6-2.1c13.9-2.8 27.9 5.2 32.5 18.7l15.3 44.5c4.7 13.6.8 27.9-10.2 37.3-6.4 5.6-14.2 8.4-22.1 8.4z"/>
			</g>
			<g id="XMLID_901_">
				<path id="XMLID_3479_" d="m427 322.2h47.3v10h-47.3z" transform="matrix(.707 .707 -.707 .707 363.176 -222.78)"/>
			</g>
			<g id="XMLID_902_">
				<path id="XMLID_3476_" d="m405.9 512h-72.3c-2.6 0-4.8-2-5-4.7-.7-11.4 6.4-21.8 17.3-25.2l2.1-.7-95.1-74c-1-.8-1.7-1.9-1.9-3.2l-6-37.5c-.2-1.4.2-2.9 1.1-4s2.3-1.8 3.8-1.8l72.3-1c1.5 0 3 .7 4 1.9s1.3 2.8 1 4.2l-3.1 13.8c23.2 17.1 42.3 39.5 55.5 65l30.8 59.8c.8 1.5.7 3.4-.2 4.9-.9 1.6-2.5 2.5-4.3 2.5zm-66.9-10h58.7l-27.1-52.5c-13-25.1-32-47.1-55.1-63.4-1.6-1.2-2.4-3.2-2-5.2l2.4-10.8-60.2.8 4.8 29.8 101.1 78.6c1.5 1.1 2.2 3 1.9 4.8s-1.6 3.3-3.4 3.9l-11.2 3.5c-5 1.7-8.6 5.7-9.9 10.5z"/>
			</g>
			<g id="XMLID_497_">
				<path id="XMLID_3475_" d="m369.7 464.2h10v32.7h-10z" transform="matrix(.17 .986 -.986 .17 784.609 29.644)"/>
			</g>
			<g id="XMLID_903_">
				<path id="XMLID_3474_" d="m288.2 430-6.3-7.8c17-13.8 38.3-21 60.1-20.3l5.2.2-.3 10-5.2-.2c-19.4-.5-38.4 5.9-53.5 18.1z"/>
			</g>
			<g id="XMLID_908_">
				<path id="XMLID_3471_" d="m270.9 269h-32c-2.1 0-4-1.3-4.7-3.4l-34.2-98c-.1-.2-.1-.4-.2-.5l-16.3-71.4c-.3-1.4 0-2.8.8-4s2.1-1.9 3.5-2.1l25.1-3.1c2.4-.3 4.6 1.1 5.4 3.4l57.4 172.5c.5 1.5.3 3.2-.7 4.5s-2.5 2.1-4.1 2.1zm-28.4-10h21.5l-54-162-15.5 1.9 15 65.7z"/>
			</g>
			<g id="XMLID_787_">
				<path id="XMLID_3470_" d="m325.9 269h-32.5c-2.2 0-4.2-1.5-4.8-3.6l-44.9-157.2 9.6-2.7 43.9 153.5h21.7l-47.3-138.8 9.5-3.2 49.5 145.4c.5 1.5.3 3.2-.7 4.5-.9 1.3-2.4 2.1-4 2.1z"/>
			</g>
			<g id="XMLID_2737_">
				<path id="XMLID_3300_" d="m395.9 269h-44c-2.1 0-4-1.3-4.7-3.3l-55.9-156.1 9.4-3.4 54.7 152.8h32.1l-42.5-79.6c-.1-.2-.2-.4-.3-.7l-29.1-81.5 9.4-3.4 29 81.2 46.2 86.6c.8 1.5.8 3.4-.1 4.9-.8 1.6-2.4 2.5-4.2 2.5z"/>
			</g>
			<g id="XMLID_784_">
				<path id="XMLID_3299_" d="m395.7 269h-156.7c-2.1 0-4-1.3-4.7-3.4l-33.3-95.1-78.7-10.5c-2.5-.3-4.3-2.5-4.3-5v-35.3c0-1.9 1.1-3.7 2.9-4.5l50.2-23.2c.5-.2 1-.4 1.5-.4l62.9-7.7 1.2 9.9-62.2 7.6-46.5 21.5v27.7l77.4 10.4c1.9.3 3.4 1.5 4.1 3.3l33.1 94.6h144.8l-42.3-79.6c-1-1.9-.7-4.2.7-5.7 1.4-1.6 3.7-2 5.6-1.2l46.7 19.9-1.7-48.1c-26.2-24.1-58.5-40.6-93.3-48l2.1-9.8c37.3 7.8 71.8 25.8 99.6 51.9 1 .9 1.5 2.2 1.6 3.5l2 58c.1 1.7-.8 3.3-2.2 4.3s-3.2 1.1-4.8.5l-40.9-17.4 39.5 74.5c.8 1.5.8 3.4-.1 4.9-.8 1.5-2.4 2.4-4.2 2.4z"/>
			</g>
			<g id="XMLID_812_">
				<path id="XMLID_3298_" d="m468 302.3c-1.1 0-2.1-.1-3.2-.3l-16.9-3.6 2.1-9.8 16.9 3.6c2.3.5 4.7-.7 5.7-2.8 1.2-2.6.2-5.7-2.4-6.9l-29.1-14.1c-2.6-1.3-5.6-1.5-8.4-.5s-5 3-6.3 5.6l-7.2 14.8-9-4.4 7.2-14.8c5.1-10.4 17.6-14.8 28.1-9.8l29.1 14.1c7.5 3.6 10.7 12.7 7 20.3-2.5 5.3-7.9 8.6-13.6 8.6z"/>
			</g>
		</g>
		</g>
	</symbol>

	<symbol id="strip-volley">
		<g>
			<path d="m158.801 196.528c29.651 8.54 65.939-1.565 86.776-25.699 2.762-3.087 2.498-7.828-.589-10.59-3.088-2.762-7.829-2.498-10.59.59-7.25 8.104-16.197 14.328-26.054 18.37 4.258-3.794 8.1-8.152 11.438-13.031 13.181-19.264 17.058-44.579 10.818-67.942 6.837-.604 13.765-.228 20.481 1.121.93 4.617 1.404 9.343 1.404 14.102 0 6.779-.951 13.482-2.827 19.922-1.158 3.978 1.126 8.14 5.104 9.299 3.974 1.159 8.14-1.126 9.298-5.104 2.273-7.804 3.425-15.918 3.425-24.117.136-47.913-39.374-86.092-86.093-86.085-45.654-1.021-87.084 39.626-86.085 86.085-.001 38.831 26.098 72.943 63.494 83.079zm-21.701-102.195c9.214 10.625 23.423 20.444 37.998 25.069 2.067 9.975 1.967 20.185-.268 30.048-19.611-4.957-36.408-18.171-44.765-35.601-5.559-11.593-6.958-23.883-4.264-35.797 3.141 5.866 6.94 11.326 11.299 16.281zm-26.794 19.115c0-3.239.232-6.44.655-9.596 1.155 5.606 3.012 11.133 5.578 16.483 10.092 21.046 30.076 37.06 53.426 43.339-2.89 6.217-6.671 12.027-11.195 17.17-28.743-9.624-48.464-36.721-48.464-67.396zm97.096 44.249c-7.254 10.601-17.189 17.954-28.842 21.582 11.197-17.573 15.883-41.761 11.124-63.336 7.607-6.787 16.496-11.821 26.165-14.817 5.515 19.462 2.47 40.617-8.447 56.571zm13-73.168c-14.19 2.713-29.691 10.145-41.001 20.49-9.722-3.222-18.516-8.487-25.875-15.289 14.097-14.483 33.926-22.406 53.179-20.934 12.812.982 24.151 5.912 33.12 14.196-6.505-.215-13.039.295-19.423 1.537zm4.498-27.283c-5.428-1.8-11.137-2.953-17.047-3.405-23.27-1.786-47.12 7.51-64.232 24.584-3.916-5.55-7.061-11.682-9.274-18.246 12.996-11.512 29.531-17.816 47.044-17.816 16.174 0 31.356 5.486 43.509 14.883z"/>
			<path d="m487.534 233.299h-14.075c-13.491 0-24.466 10.976-24.466 24.466v5.462h-385.985v-5.462c0-13.49-10.976-24.466-24.466-24.466h-14.076c-13.49 0-24.466 10.976-24.466 24.466v219.391c0 4.143 3.358 7.5 7.5 7.5s7.5-3.357 7.5-7.5v-22.428h33.008v22.428c0 4.143 3.358 7.5 7.5 7.5s7.5-3.357 7.5-7.5v-22.428h385.984v22.428c0 4.143 3.358 7.5 7.5 7.5s7.5-3.357 7.5-7.5v-22.428h33.008v22.428c0 4.143 3.358 7.5 7.5 7.5s7.5-3.357 7.5-7.5v-163.327c0-4.143-3.358-7.5-7.5-7.5s-7.5 3.357-7.5 7.5v125.898h-33.008v-161.5h33.008v1.533c0 4.143 3.358 7.5 7.5 7.5s7.5-3.357 7.5-7.5v-21.995c0-13.49-10.976-24.466-24.466-24.466zm-38.542 147.595h-43.881v-43.833h43.881zm-58.881 0h-41.644v-43.833h41.644zm-264.956 0h-3.266v-43.833h41.644v43.833h-3.843c-4.142 0-7.5 3.357-7.5 7.5s3.358 7.5 7.5 7.5h3.843v43.834h-41.644v-43.834h3.266c4.142 0 7.5-3.357 7.5-7.5s-3.358-7.5-7.5-7.5zm-62.147-43.833h43.881v43.833h-43.881zm172.17 0h41.645v43.833h-41.645zm-15 43.833h-41.645v-43.833h41.645zm71.644-43.833h41.645v43.833h-41.645zm0-15v-43.834h41.645v43.834zm-15 0h-41.645v-43.834h41.645zm-56.644 0h-41.645v-43.834h41.645zm-56.645 0h-41.644v-43.834h41.644zm15 73.833h41.645v43.834h-41.645zm56.645 0h41.645v43.834h-41.645zm56.644 0h41.645v43.834h-41.645zm56.645 0h41.644v43.834h-41.644zm0-73.833v-43.834h41.644v43.834zm-241.578-43.834v43.834h-43.881v-43.834zm-82.423-29.928h14.075c5.22 0 9.466 4.246 9.466 9.466v5.462h-33.007v-5.462c0-5.22 4.247-9.466 9.466-9.466zm-9.466 191.429v-161.501h33.008v161.501zm48.008-43.834h43.881v43.834h-43.881zm342.103 43.834v-43.834h43.881v43.834zm43.881-117.667h-43.881v-43.834h43.881zm15-58.834v-5.462c0-5.22 4.247-9.466 9.466-9.466h14.075c5.22 0 9.466 4.246 9.466 9.466v5.462z"/>
			<path d="m37.557 146.485c1.919 0 3.839-.732 5.303-2.196l37.044-37.044c2.929-2.93 2.929-7.678 0-10.607-2.929-2.928-7.678-2.928-10.606 0l-37.044 37.044c-2.929 2.93-2.929 7.678 0 10.607 1.464 1.463 3.384 2.196 5.303 2.196z"/>
			<path d="m37.557 193.224c1.919 0 3.839-.732 5.303-2.196l37.044-37.044c2.929-2.93 2.929-7.678 0-10.607-2.929-2.928-7.678-2.928-10.606 0l-37.044 37.043c-2.929 2.93-2.929 7.678 0 10.607 1.464 1.464 3.384 2.197 5.303 2.197z"/>
			<path d="m62.534 196.878c-2.929 2.93-2.929 7.678 0 10.607 1.464 1.464 3.384 2.196 5.303 2.196s3.839-.732 5.303-2.196l19.152-19.152c2.929-2.93 2.929-7.678 0-10.607-2.929-2.928-7.678-2.928-10.606 0z"/>
		</g>
	</symbol>
</svg> 